<svg xmlns="http://www.w3.org/2000/svg" viewBox="0 0 128 128" role="img" aria-label="wisemon-translate icon">
  <defs>
    <linearGradient id="bg" x1="16" y1="10" x2="112" y2="118" gradientUnits="userSpaceOnUse">
      <stop stop-color="#111827"/>
      <stop offset="1" stop-color="#030712"/>
    </linearGradient>
    <linearGradient id="accent" x1="28" y1="26" x2="104" y2="102" gradientUnits="userSpaceOnUse">
      <stop stop-color="#22C55E"/>
      <stop offset="0.52" stop-color="#06B6D4"/>
      <stop offset="1" stop-color="#60A5FA"/>
    </linearGradient>
    <filter id="shadow" x="-20%" y="-20%" width="140%" height="140%">
      <feDropShadow dx="0" dy="10" stdDeviation="8" flood-color="#020617" flood-opacity="0.45"/>
    </filter>
  </defs>
  <rect width="128" height="128" rx="30" fill="url(#bg)"/>
  <path d="M24 40c0-8.8 7.2-16 16-16h31c8.8 0 16 7.2 16 16v10c0 8.8-7.2 16-16 16H53.5L35 80v-14.7C28.6 63.1 24 57 24 50V40Z" fill="#F8FAFC" filter="url(#shadow)"/>
  <path d="M41 40h27M54.5 34v6M56 40c-2.2 8.7-7.1 15-15 19M45 49c3.6 3.8 7.4 6.6 11.8 8.5" fill="none" stroke="#0F172A" stroke-width="5.5" stroke-linecap="round" stroke-linejoin="round"/>
  <path d="M104 88c0 8.8-7.2 16-16 16H57c-8.8 0-16-7.2-16-16V78c0-8.8 7.2-16 16-16h17.5L93 48v14.7c6.4 2.2 11 8.3 11 15.3v10Z" fill="url(#accent)" filter="url(#shadow)"/>
  <path d="M59 92l12-24 12 24M64 84h14" fill="none" stroke="#F8FAFC" stroke-width="6" stroke-linecap="round" stroke-linejoin="round"/>
  <path d="M92 38l9 9-9 9" fill="none" stroke="#22C55E" stroke-width="6" stroke-linecap="round" stroke-linejoin="round"/>
</svg>
